<svg width="103" height="29" viewBox="0 0 103 29" fill="none" xmlns="http://www.w3.org/2000/svg">
<g clip-path="url(#clip0_292_1218)">
<path fill-rule="evenodd" clip-rule="evenodd" d="M5.57165 0.100316C3.46915 0.979378 1.16727 3.45344 0.442272 6.56188C-0.482103 10.495 3.35134 12.1534 3.66852 11.6097C4.03102 10.9753 2.97977 10.7578 2.76227 8.70969C2.4904 6.08157 3.71384 3.12719 5.25446 1.84032C5.54446 1.59563 5.52634 1.93094 5.52634 2.54719L5.47196 15.6516C5.47196 18.4609 5.35415 19.34 5.14571 20.2191C4.93727 21.1072 4.60196 21.7053 4.84665 21.9409C5.13665 22.1947 6.36915 21.5784 7.07602 20.5816C7.88369 19.3496 8.30353 17.9039 8.28134 16.4309C8.34477 14.5641 8.33571 11.6006 8.34477 9.915C8.34477 8.37438 8.37196 3.83407 8.31758 1.10625C8.29946 0.435628 6.44165 -0.262185 5.57165 0.109378V0.100316ZM80.002 13.2228C79.973 14.3985 79.7015 15.5555 79.2045 16.6213C78.4341 18.18 76.821 18.6603 76.1323 16.4219C75.7698 15.2075 75.7426 13.1684 76.0145 11.4647C76.2863 9.74282 77.0476 8.42875 78.3073 8.54657C79.5579 8.66438 80.1379 10.2684 80.002 13.2228ZM59.0223 22.2672C59.0042 24.6869 58.6235 26.8075 57.8079 27.4328C56.6388 28.3028 55.0891 27.6413 55.4063 25.8741C55.6873 24.3153 57.0376 22.7203 59.0313 20.7628L59.0223 22.2672ZM58.7051 13.2047C58.6521 14.383 58.3817 15.5413 57.9076 16.6213C57.1373 18.18 55.5151 18.6603 54.8354 16.4219C54.3823 14.8903 54.491 12.9147 54.7176 11.6641C55.0167 10.0509 55.7326 8.54657 57.0104 8.54657C58.261 8.54657 58.8773 9.90594 58.7051 13.2047ZM46.5523 13.1866C46.5293 14.3765 46.2609 15.5489 45.7638 16.6303C44.9663 18.1709 43.3804 18.6603 42.6826 16.4219C42.1841 14.8178 42.3563 12.6156 42.5648 11.4375C42.8729 9.67032 43.6523 8.42875 44.8576 8.5375C46.1082 8.66438 46.7063 10.2594 46.5523 13.1866ZM102.241 14.8269C101.942 14.8269 101.797 15.1441 101.689 15.6697C101.29 17.5003 100.873 17.9172 100.329 17.9172C99.731 17.9172 99.1873 17.0109 99.0423 15.1984C98.9335 13.7666 98.9517 11.1384 99.0967 8.51938C99.1238 7.98469 98.9698 7.45907 97.5288 6.93344C96.9126 6.70688 96.0063 6.37157 95.5623 7.45907C94.6649 9.52828 94.0315 11.7023 93.6773 13.9297C93.6773 13.9841 93.6048 13.9931 93.5866 13.8753C93.5232 13.0869 93.351 11.6459 93.3329 8.62813C93.3329 8.03907 93.206 7.54063 92.5535 7.13282C92.1276 6.86094 90.8498 6.39875 90.3785 6.95157C89.9888 7.40469 89.5266 8.64625 89.0463 10.1053L88.3757 12.0991L88.3848 7.67657C88.3848 7.22344 88.0766 7.06938 87.977 7.04219C87.4453 6.87819 86.899 6.7659 86.3457 6.70688C85.9107 6.70688 85.802 6.95157 85.802 7.31407C85.802 7.35938 85.7295 11.5281 85.7295 14.4463V14.8631C85.4848 16.2044 84.6963 18.0259 83.8354 18.0259C82.9745 18.0259 82.5666 17.2647 82.5666 13.7847C82.5666 11.7547 82.6301 10.8756 82.6573 9.4075C82.6754 8.55563 82.7116 7.91219 82.7116 7.76719C82.7026 7.31407 81.9232 7.0875 81.5607 6.99688C81.1982 6.91532 80.872 6.87907 80.6273 6.89719C80.2648 6.91532 80.0201 7.14188 80.0201 7.45907V7.9575C79.629 7.33889 79.0467 6.86479 78.3616 6.60719C77.0566 6.2175 75.6973 6.56188 74.6732 7.99375C73.7893 9.25819 73.269 10.7408 73.1688 12.2803C73.0238 13.6397 73.0782 15.0081 73.3229 16.1772C73.0238 17.4822 72.4529 18.0259 71.8366 18.0259C70.9395 18.0259 70.296 16.5578 70.3685 14.0384C70.4229 12.3709 70.7491 11.2019 71.1116 9.51625C71.2657 8.79125 71.1479 8.42875 70.8307 8.06625C70.5407 7.73094 69.9245 7.55875 69.0273 7.76719C68.3929 7.91219 67.4866 8.07532 66.671 8.19313C66.671 8.19313 66.7163 8.00282 66.7616 7.64938C66.9701 5.80969 64.9673 5.95469 64.3238 6.54375C63.9432 6.89719 63.6895 7.305 63.5807 8.05719C63.4266 9.23532 64.3963 9.78813 64.3963 9.78813C63.7736 12.1404 62.7296 14.3604 61.3151 16.3403V15.7059C61.306 12.6609 61.3423 10.2684 61.3604 9.4075C61.3785 8.55563 61.4148 7.93032 61.4148 7.77625C61.4148 7.45 61.2154 7.32313 60.8166 7.16907C60.4541 7.02407 60.0373 6.93344 59.6023 6.89719C59.0585 6.85188 58.7232 7.14188 58.7323 7.48625V7.9575C58.3393 7.33691 57.7535 6.86251 57.0648 6.60719C55.7598 6.2175 54.4004 6.56188 53.3763 7.99375C52.5241 9.27085 52.0067 10.7418 51.872 12.2713C51.736 13.6941 51.7541 14.8994 51.9535 15.9325C51.7451 16.9566 51.147 18.0169 50.4763 18.0169C49.6154 18.0169 49.117 17.2647 49.117 13.7847C49.117 11.7547 49.1804 10.8756 49.2076 9.4075C49.2257 8.55563 49.262 7.91219 49.262 7.76719C49.262 7.31407 48.4735 7.0875 48.111 6.99688C47.7304 6.90625 47.3951 6.87907 47.1504 6.90625C46.8151 6.92438 46.5795 7.22344 46.5795 7.45V7.9575C46.1865 7.33691 45.6007 6.86251 44.912 6.60719C43.607 6.2175 42.2567 6.57094 41.2235 7.99375C40.5438 8.92719 40.0001 9.96032 39.7191 12.2531C39.643 12.8664 39.6067 13.4839 39.6104 14.1019C39.3385 15.7422 38.1513 17.6363 37.1816 17.6363C36.6107 17.6363 36.067 16.5397 36.067 14.1925C36.067 11.0659 36.2663 6.61625 36.2935 6.19032L37.7616 6.16313C38.3779 6.16313 38.9307 6.17219 39.7463 6.12688C40.1541 6.10875 40.5438 4.64063 40.127 4.45938C39.9366 4.37782 38.5863 4.30532 38.0426 4.29625C37.5895 4.28719 36.3388 4.19657 36.3388 4.19657C36.3388 4.19657 36.4566 1.24219 36.4838 0.934066C36.502 0.662191 36.1666 0.535316 35.9673 0.453753C35.52 0.273713 35.0553 0.140095 34.5807 0.055003C33.892 -0.0809345 33.5838 0.0550029 33.5204 0.635003C33.4298 1.51407 33.3845 4.09688 33.3845 4.09688C32.877 4.09688 31.146 3.99719 30.6476 3.99719C30.1763 3.99719 29.6688 6.00907 30.3213 6.03625L33.2213 6.11782L33.1942 12.0356V12.4616C32.7138 14.9356 31.0463 16.2678 31.0463 16.2678C31.4088 14.6366 30.6657 13.4131 29.3516 12.3709C28.8623 11.9903 27.9016 11.2653 26.8232 10.4678C26.8232 10.4678 27.4485 9.85157 28.0013 8.61907C28.391 7.74907 28.4091 6.75219 27.4485 6.53469C25.8626 6.16313 24.5485 7.32313 24.1588 8.57375C24.0068 8.9786 23.9686 9.41738 24.0485 9.84239C24.1284 10.2674 24.3233 10.6624 24.612 10.9844L24.7479 11.1566C24.3854 11.8453 23.896 12.7697 23.4791 13.4947C22.3282 15.4884 21.4491 17.0744 20.7876 17.0744C20.262 17.0744 20.271 15.4703 20.271 13.9659C20.271 12.67 20.3616 10.7216 20.4432 8.70969C20.4704 8.03907 20.1351 7.65844 19.5732 7.31407C19.1264 7.00499 18.6203 6.79206 18.087 6.68875C17.4526 6.68875 15.6401 6.77938 13.9182 11.7366C13.7098 12.3619 13.2838 13.4947 13.2838 13.4947L13.3201 7.54063C13.3201 7.39563 13.2476 7.26875 13.0754 7.17813C12.5346 6.89062 11.9379 6.72367 11.3263 6.68875C11.0001 6.68875 10.837 6.84282 10.837 7.14188L10.7735 16.4763C10.7735 17.1831 10.7916 18.0078 10.8641 18.3703C10.9366 18.7328 11.0454 19.0228 11.1904 19.195C11.3263 19.3763 11.4895 19.5031 11.7523 19.5575C12.006 19.6119 13.3654 19.7841 13.4379 19.2675C13.5285 18.6422 13.5285 17.9716 14.2445 15.4613C15.3501 11.5553 16.8001 9.64313 17.4888 8.9725C17.6066 8.84563 17.7426 8.84563 17.7335 9.03594L17.5341 13.8572C17.3529 18.7238 18.241 19.6209 19.5007 19.6209C20.4704 19.6209 21.8388 18.6603 23.307 16.2316L25.7538 12.1534L27.1857 13.4766C28.3457 14.5641 28.7263 15.6153 28.4726 16.6031C28.2823 17.3553 27.5482 18.1438 26.2613 17.3825C25.8807 17.1559 25.7176 16.9838 25.346 16.7391C25.1376 16.6031 24.8295 16.5578 24.6391 16.7028C24.1588 17.0653 23.8779 17.5366 23.7238 18.1075C23.5698 18.6603 24.1316 18.9594 24.7116 19.2131C25.2101 19.4397 26.2885 19.6391 26.9773 19.6663C29.6416 19.7569 31.7804 18.3794 33.2666 14.8269C33.5385 17.89 34.6713 19.63 36.6379 19.63C37.952 19.63 39.2751 17.9263 39.8551 16.2588C40.0182 16.9384 40.2629 17.5275 40.5801 18.035C42.1026 20.4366 45.0479 19.9109 46.5251 17.8719C46.9782 17.2466 47.0507 17.02 47.0507 17.02C47.0949 17.7061 47.3917 18.3516 47.8837 18.8319C48.3757 19.3122 49.0281 19.5933 49.7151 19.6209C50.712 19.6209 51.736 19.1497 52.461 17.5275C52.5426 17.7088 52.6423 17.8719 52.7329 18.035C54.2554 20.4366 57.2007 19.9109 58.6779 17.8719L58.8591 17.6181L58.9045 18.8869L57.5451 20.1284C55.2613 22.2128 53.5213 23.7988 53.3945 25.6475C53.2313 28.0038 55.1435 28.8738 56.5935 28.9916C57.3188 29.0277 58.0405 28.8694 58.6841 28.5333C59.3278 28.1971 59.87 27.6952 60.2548 27.0794C60.9617 26.0372 61.4329 23.7897 61.3966 21.5694L61.3423 18.3431C63.5131 15.8329 65.1807 12.9284 66.2541 9.78813C66.2541 9.78813 67.097 9.79719 67.9941 9.74282C68.2841 9.72469 68.3657 9.77907 68.3113 9.9875C68.2479 10.2413 67.1785 14.3738 68.1573 17.1288C68.8279 19.0138 70.3323 19.6209 71.2385 19.6209C72.2807 19.6209 73.2866 18.8325 73.8213 17.6544L74.0298 18.035C75.5523 20.4366 78.4885 19.9109 79.9748 17.8719C80.3101 17.4188 80.5004 17.02 80.5004 17.02C80.8266 19.0138 82.3763 19.63 83.2645 19.63C84.1888 19.63 85.077 19.2494 85.7838 17.5638C85.811 18.3069 85.8563 18.9141 85.9288 19.1044C85.9741 19.2222 86.237 19.3763 86.4363 19.4397C87.2792 19.7478 88.1401 19.6028 88.4663 19.5394C88.6838 19.4941 88.856 19.3128 88.8832 18.8597C88.9466 17.6544 88.9104 15.6334 89.2729 14.1381C89.8801 11.6097 90.451 10.6309 90.7229 10.1506C90.877 9.87875 91.0491 9.83344 91.0582 10.1234C91.0673 10.7034 91.0945 12.4072 91.3301 14.7C91.5113 16.3856 91.747 17.3825 91.9192 17.6906C92.4357 18.5969 93.0701 18.6422 93.5776 18.6422C93.9038 18.6422 94.5926 18.5516 94.5291 17.9806C94.502 17.6997 94.5473 15.9688 95.1635 13.4856C95.5532 11.8634 96.2057 10.4044 96.4413 9.86063C96.532 9.67032 96.5773 9.82438 96.5773 9.86063C96.5229 10.9663 96.4141 14.6184 96.8673 16.6213C97.4835 19.3219 99.2688 19.63 99.8941 19.63C101.226 19.63 102.314 18.615 102.676 15.9597C102.767 15.3253 102.631 14.8269 102.241 14.8269Z" fill="#262626"/>
</g>
<defs>
<clipPath id="clip0_292_1218">
<rect width="103" height="29" fill="white"/>
</clipPath>
</defs>
</svg>
