<svg width="24" height="21" viewBox="0 0 24 21" fill="none" xmlns="http://www.w3.org/2000/svg">
<path d="M16.7922 2.32587C18.1066 2.39854 19.339 2.98778 20.2209 3.96518C21.1028 4.94258 21.5626 6.22892 21.5002 7.54387C21.5002 10.6159 18.8482 12.5029 16.3032 14.7659C13.7912 17.0089 12.4382 18.2349 12.0002 18.5179C11.5232 18.2089 9.85717 16.6949 7.69717 14.7659C5.14117 12.4939 2.50017 10.5889 2.50017 7.54387C2.43773 6.22892 2.89755 4.94258 3.77943 3.96518C4.6613 2.98778 5.89373 2.39854 7.20817 2.32587C7.93631 2.30381 8.65772 2.47106 9.30188 2.81127C9.94603 3.15149 10.4909 3.65304 10.8832 4.26687C11.7232 5.44187 11.8632 6.02987 12.0032 6.02987C12.1432 6.02987 12.2812 5.44187 13.1132 4.26387C13.5032 3.6472 14.0483 3.14367 14.6939 2.80359C15.3395 2.46351 16.063 2.29878 16.7922 2.32587ZM16.7922 0.325874C15.8841 0.296801 14.9812 0.472957 14.1506 0.841225C13.3201 1.20949 12.5833 1.76038 11.9952 2.45287C11.4075 1.7624 10.6723 1.21278 9.84371 0.844626C9.01515 0.476471 8.11445 0.299187 7.20817 0.325874C5.36304 0.398026 3.62155 1.19786 2.36451 2.55047C1.10747 3.90308 0.43716 5.69841 0.500165 7.54387C0.500165 11.1539 3.05017 13.3709 5.51517 15.5139C5.79817 15.7599 6.08417 16.0079 6.36817 16.2609L7.39517 17.1789C8.51521 18.2446 9.68943 19.252 10.9132 20.1969C11.2369 20.4065 11.6144 20.5181 12.0002 20.5181C12.3859 20.5181 12.7634 20.4065 13.0872 20.1969C14.3499 19.2231 15.5602 18.1834 16.7132 17.0819L17.6352 16.2579C17.9282 15.9979 18.2252 15.7389 18.5202 15.4839C20.8542 13.4589 23.5002 11.1639 23.5002 7.54387C23.5632 5.69841 22.8929 3.90308 21.6358 2.55047C20.3788 1.19786 18.6373 0.398026 16.7922 0.325874Z" fill="#262626"/>
</svg>
