<svg width="24" height="24" viewBox="0 0 24 24" fill="none" xmlns="http://www.w3.org/2000/svg">
<path d="M2.04883 7.00195H21.9498" stroke="#262626" stroke-width="2" stroke-linejoin="round"/>
<path d="M13.5039 2.00195L16.3619 7.00295" stroke="#262626" stroke-width="2" stroke-linecap="round" stroke-linejoin="round"/>
<path d="M7.20703 2.10938L10.002 7.00138" stroke="#262626" stroke-width="2" stroke-linecap="round" stroke-linejoin="round"/>
<path d="M2 12.001V15.45C2 18.299 2.698 19.456 3.606 20.395C4.546 21.303 5.704 22.002 8.552 22.002H15.448C18.296 22.002 19.454 21.303 20.394 20.395C21.302 19.456 22 18.299 22 15.45V8.552C22 5.704 21.302 4.546 20.394 3.607C19.454 2.699 18.296 2 15.448 2H8.552C5.704 2 4.546 2.699 3.606 3.607C2.698 4.546 2 5.704 2 8.552V12.001Z" stroke="#262626" stroke-width="2" stroke-linecap="round" stroke-linejoin="round"/>
<path fill-rule="evenodd" clip-rule="evenodd" d="M9.76259 17.6648C9.62447 17.585 9.50978 17.4703 9.43008 17.3321C9.35038 17.194 9.30848 17.0373 9.30859 16.8778V11.6308C9.30841 11.4711 9.3503 11.3141 9.43005 11.1758C9.5098 11.0374 9.6246 10.9225 9.76288 10.8426C9.90116 10.7627 10.0581 10.7207 10.2178 10.7207C10.3775 10.7207 10.5343 10.7628 10.6726 10.8428L15.2176 13.4668C15.3559 13.5465 15.4708 13.6613 15.5507 13.7995C15.6305 13.9378 15.6726 14.0946 15.6726 14.2543C15.6726 14.4139 15.6305 14.5708 15.5507 14.709C15.4708 14.8473 15.3559 14.962 15.2176 15.0418L10.6726 17.6658C10.5343 17.7456 10.3773 17.7877 10.2176 17.7877C10.0579 17.7877 9.90093 17.7456 9.76259 17.6658V17.6648Z" fill="#262626"/>
</svg>
