<svg width="24" height="24" viewBox="0 0 24 24" fill="none" xmlns="http://www.w3.org/2000/svg">
<g clip-path="url(#clip0_292_1258)">
<path d="M12.0027 2.0005C13.3027 1.95875 14.5979 2.17875 15.8112 2.64744C17.0245 3.11612 18.1313 3.82391 19.0656 4.72877C20 5.63362 20.743 6.71706 21.2504 7.91472C21.7577 9.11237 22.0192 10.3998 22.0192 11.7005C22.0192 13.0012 21.7577 14.2886 21.2504 15.4863C20.743 16.6839 20 17.7674 19.0656 18.6722C18.1313 19.5771 17.0245 20.2849 15.8112 20.7536C14.5979 21.2222 13.3027 21.4422 12.0027 21.4005C11.0248 21.4032 10.0511 21.2741 9.10771 21.0165C8.93073 20.9682 8.7425 20.9823 8.57471 21.0565L6.59071 21.9325C6.47075 21.9852 6.33967 22.0077 6.20898 21.998C6.0783 21.9883 5.95199 21.9467 5.84113 21.8768C5.73027 21.8069 5.63826 21.7109 5.57315 21.5972C5.50805 21.4834 5.47184 21.3555 5.46771 21.2245L5.41371 19.4445C5.4092 19.3364 5.38298 19.2303 5.33659 19.1325C5.2902 19.0348 5.22461 18.9474 5.14371 18.8755C4.13989 17.9719 3.34051 16.8644 2.79901 15.627C2.25752 14.3897 1.98638 13.051 2.00371 11.7005C1.99611 10.399 2.25185 9.1095 2.75554 7.90944C3.25923 6.70938 4.00047 5.62361 4.93466 4.71745C5.86885 3.81129 6.97668 3.10346 8.19152 2.63654C9.40636 2.16962 10.7021 1.95327 12.0027 2.0005Z" stroke="#262626" stroke-width="1.739" stroke-miterlimit="10"/>
<path fill-rule="evenodd" clip-rule="evenodd" d="M17.7901 10.1322C17.8736 10.0011 17.9081 9.84464 17.8875 9.69054C17.8668 9.53645 17.7923 9.39462 17.6772 9.29013C17.562 9.18565 17.4137 9.12523 17.2583 9.11958C17.1029 9.11392 16.9505 9.16338 16.8281 9.25922L14.2721 11.3092C14.1631 11.3918 14.0302 11.4366 13.8934 11.437C13.7567 11.4373 13.6235 11.3932 13.5141 11.3112L11.0601 9.47022C10.886 9.33988 10.6868 9.24698 10.4751 9.19737C10.2633 9.14776 10.0436 9.14252 9.82969 9.18197C9.61581 9.22142 9.41242 9.30471 9.2323 9.4266C9.05218 9.54849 8.89924 9.70634 8.7831 9.89022L6.2161 13.8702C6.13181 14.0012 6.09667 14.1579 6.11691 14.3124C6.13716 14.4668 6.21147 14.6091 6.32666 14.714C6.44185 14.8189 6.59048 14.8796 6.74617 14.8853C6.90185 14.891 7.05453 14.8414 7.1771 14.7452L9.7331 12.6962C9.8422 12.6134 9.97531 12.5685 10.1123 12.5681C10.2492 12.5677 10.3826 12.612 10.4921 12.6942L12.9441 14.5342C13.1182 14.6647 13.3175 14.7578 13.5293 14.8075C13.7412 14.8572 13.9611 14.8625 14.1751 14.823C14.3891 14.7835 14.5926 14.7002 14.7728 14.5782C14.953 14.4562 15.106 14.2982 15.2221 14.1142L17.7901 10.1322Z" fill="#262626"/>
</g>
<defs>
<clipPath id="clip0_292_1258">
<rect width="24" height="24" fill="white"/>
</clipPath>
</defs>
</svg>
